Coordinates
version=1
nRows=32
nColumns=22
inDegrees=yes

Units are S.I. units (second, meters, Newtons, ...)
If the header above contains a line with 'inDegrees', this indicates whether rotational values are in degrees (yes) or radians (no).

endheader
time	pelvis_tilt	pelvis_list	pelvis_rotation	pelvis_tx	pelvis_ty	pelvis_tz	hip_flexion_r	hip_adduction_r	hip_rotation_r	knee_angle_r	ankle_angle_r	subtalar_angle_r	hip_flexion_l	hip_adduction_l	hip_rotation_l	knee_angle_l	ankle_angle_l	subtalar_angle_l	lumbar_extension	lumbar_bending	lumbar_rotation
      0.01000000	     -0.57587663	      0.60513768	    179.65517113	      0.07753739	      1.08482551	      1.20090954	     -4.84996037	      1.43184631	      1.02462294	     -7.01153070	     11.80392668	     -3.26590041	     -3.65668226	      0.72863162	     -2.05757024	     -9.42359780	     13.09514382	     -2.34647336	     -1.92962969	     -1.41754082	     -5.82518116
      0.02000000	     -0.51699776	      0.64248974	    179.70942677	      0.07779721	      1.08470422	      1.20091117	     -4.76840311	      1.47861502	      0.98362874	     -7.02544521	     11.80090387	     -3.26721230	     -3.52249976	      0.67789202	     -2.00257419	     -9.52554506	     13.15471013	     -2.35075140	     -1.89581185	     -1.38055095	     -5.88662956
      0.03000000	     -0.51343977	      0.64935422	    179.72585533	      0.07801261	      1.08466670	      1.20089170	     -4.75057107	      1.48650861	      1.00259494	     -7.03405163	     11.81717806	     -3.26343135	     -3.46752398	      0.66541210	     -1.98126658	     -9.59709441	     13.15695352	     -2.35111049	     -1.92348979	     -1.37354768	     -5.90771933
      0.04000000	     -0.42763232	      0.68488331	    179.77591392	      0.07819116	      1.08449628	      1.20093423	     -4.64353751	      1.52667994	      0.94820878	     -7.04978563	     11.84770484	     -3.23523541	     -3.29895947	      0.61733158	     -1.97096856	     -9.71718186	     13.26160193	     -2.35941496	     -1.84548587	     -1.32756569	     -5.99733453
      0.05000000	     -0.34199511	      0.68691839	    179.78342579	      0.07836820	      1.08434705	      1.20093185	     -4.51733809	      1.52667059	      0.94283571	     -7.09925331	     11.87052817	     -3.19053906	     -3.14692422	      0.61160232	     -1.95043398	     -9.81219303	     13.28344989	     -2.35504120	     -1.76756289	     -1.32615226	     -5.99991029
      0.06000000	     -0.34827991	      0.68437027	    179.78328427	      0.07844809	      1.08432744	      1.20094670	     -4.51250710	      1.51883213	      0.95995147	     -7.11493093	     11.88038187	     -3.18513657	     -3.11985992	      0.61380673	     -1.94180368	     -9.86749800	     13.29214659	     -2.35790393	     -1.78864367	     -1.32450179	     -6.00683587
      0.07000000	     -0.30150446	      0.68509678	    179.77817241	      0.07852246	      1.08422078	      1.20097382	     -4.43437093	      1.51227354	      0.95649672	     -7.16150054	     11.92506293	     -3.13147361	     -3.02144009	      0.61169931	     -1.96278204	     -9.95204203	     13.34995159	     -2.37600632	     -1.74453563	     -1.31767642	     -6.01155002
      0.08000000	     -0.29929534	      0.67186030	    179.77496507	      0.07853919	      1.08418390	      1.20102717	     -4.42163977	      1.48972637	      0.97316543	     -7.18139157	     11.95339191	     -3.11406732	     -2.98726521	      0.62738675	     -1.97459042	    -10.00998672	     13.37290195	     -2.38648516	     -1.74787073	     -1.32572443	     -6.02156016
      0.09000000	     -0.28651608	      0.65934187	    179.76466553	      0.07854895	      1.08412912	      1.20108642	     -4.38734577	      1.46626133	      0.98669654	     -7.22160402	     11.98994390	     -3.08352305	     -2.94375979	      0.64379012	     -1.98715047	    -10.06640247	     13.40281788	     -2.40291519	     -1.73832379	     -1.33296356	     -6.01434790
      0.10000000	     -0.26694139	      0.64667555	    179.75635573	      0.07854236	      1.08406442	      1.20116336	     -4.34935943	      1.44181387	      1.00363467	     -7.25665635	     12.02071070	     -3.04817464	     -2.89563672	      0.66127066	     -1.99333067	    -10.12041318	     13.42568783	     -2.41833851	     -1.71950417	     -1.34117148	     -6.00987963
      0.11000000	     -0.24792007	      0.63618994	    179.75123650	      0.07851847	      1.08400149	      1.20125712	     -4.31596118	      1.41940724	      1.01753054	     -7.28648497	     12.04756240	     -3.01698649	     -2.85122866	      0.67737664	     -1.99171636	    -10.17012836	     13.44806235	     -2.42891835	     -1.70096843	     -1.34748001	     -6.00776645
      0.12000000	     -0.24729113	      0.63365633	    179.74930319	      0.07847694	      1.08396879	      1.20136941	     -4.31094187	      1.40513941	      1.02997525	     -7.30084799	     12.05280513	     -3.00930967	     -2.83373897	      0.68632244	     -1.97607213	    -10.20821211	     13.45263701	     -2.43044899	     -1.70538653	     -1.34521558	     -6.00139982
      0.13000000	     -0.20960553	      0.61912825	    179.75314518	      0.07842750	      1.08386823	      1.20151510	     -4.26642925	      1.37689865	      1.03555042	     -7.31841865	     12.09735634	     -2.96785358	     -2.76843496	      0.70821284	     -1.97755775	    -10.26113630	     13.50058896	     -2.43810760	     -1.66603855	     -1.35665061	     -6.01356658
      0.14000000	     -0.17055450	      0.61837137	    179.76564772	      0.07839133	      1.08377674	      1.20168435	     -4.22286478	      1.36348197	      1.03711003	     -7.32942144	     12.11240341	     -2.92627759	     -2.69805513	      0.71598148	     -1.95598863	    -10.31921247	     13.52274042	     -2.43961966	     -1.63110384	     -1.35433371	     -6.02264421
      0.15000000	     -0.14888891	      0.61813136	    179.77757265	      0.07832468	      1.08370657	      1.20187130	     -4.20616884	      1.34973181	      1.03271056	     -7.32788405	     12.12986340	     -2.90188936	     -2.65367684	      0.72464640	     -1.93880278	    -10.36627881	     13.54953949	     -2.44428370	     -1.61710668	     -1.35329354	     -6.02497806
      0.16000000	     -0.10868476	      0.62475569	    179.79952250	      0.07825032	      1.08361068	      1.20209133	     -4.17071343	      1.34289371	      1.00914162	     -7.32672666	     12.14518860	     -2.85539619	     -2.58517323	      0.72676741	     -1.90892419	    -10.42117371	     13.57654496	     -2.45504668	     -1.58213195	     -1.34663005	     -6.03261822
      0.17000000	     -0.09601204	      0.62397620	    179.81686017	      0.07815286	      1.08355401	      1.20232660	     -4.17711438	      1.32650480	      1.01466077	     -7.30463747	     12.15865884	     -2.83850693	     -2.55056942	      0.73848043	     -1.89423274	    -10.46947076	     13.60108443	     -2.46485400	     -1.58257182	     -1.34913744	     -6.04100843
      0.18000000	     -0.07595618	      0.62730689	    179.84377645	      0.07804436	      1.08348307	      1.20259987	     -4.17866606	      1.31372785	      1.00362148	     -7.27968741	     12.17325539	     -2.80794414	     -2.50421514	      0.74707974	     -1.86703348	    -10.52604115	     13.63544470	     -2.48321624	     -1.57602558	     -1.34841058	     -6.05455747
      0.19000000	     -0.05480915	      0.63196349	    179.87048307	      0.07790892	      1.08341413	      1.20289571	     -4.18114315	      1.30060734	      0.99056742	     -7.25375553	     12.18590333	     -2.77088917	     -2.46066406	      0.75612973	     -1.83828634	    -10.57701803	     13.66050388	     -2.50550010	     -1.56713868	     -1.34715764	     -6.06324996
      0.20000000	     -0.03537360	      0.63493812	    179.89258167	      0.07775297	      1.08334827	      1.20320860	     -4.19028899	      1.28420274	      0.98192972	     -7.22063602	     12.19854885	     -2.73250614	     -2.42399268	      0.76867524	     -1.81268402	    -10.62141308	     13.68249652	     -2.52966284	     -1.56218976	     -1.34868147	     -6.06600742
      0.21000000	     -0.01767102	      0.63699936	    179.90863954	      0.07756102	      1.08328565	      1.20354034	     -4.20564670	      1.26468571	      0.97569514	     -7.18244635	     12.20977530	     -2.68953791	     -2.39642475	      0.78447616	     -1.79024974	    -10.65680527	     13.70025774	     -2.55637006	     -1.55584648	     -1.35146043	     -6.06180016
      0.22000000	     -0.00118625	      0.63734878	    179.91583814	      0.07733937	      1.08322612	      1.20388408	     -4.22667655	      1.24128839	      0.97409197	     -7.13754480	     12.21946929	     -2.64674329	     -2.37881039	      0.80380049	     -1.77527849	    -10.68027265	     13.71372611	     -2.58231609	     -1.55062617	     -1.35631573	     -6.04785923
      0.23000000	      0.01426396	      0.63567976	    179.91517243	      0.07707902	      1.08316927	      1.20424322	     -4.25384820	      1.21402972	      0.97717960	     -7.08694888	     12.22739029	     -2.59816704	     -2.37084782	      0.82715542	     -1.76679702	    -10.69373257	     13.72502340	     -2.61133707	     -1.54279969	     -1.36374277	     -6.02434190
      0.24000000	      0.02973720	      0.63345766	    179.90748121	      0.07680063	      1.08311278	      1.20461884	     -4.28318531	      1.18432759	      0.98366188	     -7.03204732	     12.23318798	     -2.54880148	     -2.36959326	      0.85296477	     -1.76565705	    -10.69680449	     13.73488971	     -2.64171367	     -1.53666289	     -1.37134736	     -5.99212413
      0.25000000	      0.04566026	      0.63244175	    179.89664908	      0.07650103	      1.08305475	      1.20501613	     -4.31343381	      1.15482825	      0.99091070	     -6.97642427	     12.23705299	     -2.50174597	     -2.37211255	      0.87898372	     -1.76823678	    -10.69557208	     13.74535496	     -2.67327899	     -1.52930463	     -1.37759129	     -5.95424711
      0.26000000	      0.06411021	      0.63357733	    179.88696240	      0.07619617	      1.08298974	      1.20544211	     -4.34057789	      1.12675123	      0.99663492	     -6.92243292	     12.23890701	     -2.45926360	     -2.37242722	      0.90413165	     -1.77089531	    -10.69349642	     13.75902652	     -2.70594535	     -1.52222353	     -1.38058227	     -5.91565607
      0.27000000	      0.08580713	      0.63792752	    179.88145723	      0.07588949	      1.08291587	      1.20590357	     -4.36163748	      1.10122324	      0.99955729	     -6.87384864	     12.23963730	     -2.41931624	     -2.36737150	      0.92739178	     -1.77043620	    -10.69497618	     13.77684925	     -2.74236677	     -1.51463178	     -1.37880651	     -5.87898902
      0.28000000	      0.10771082	      0.64915427	    179.88543249	      0.07558360	      1.08283486	      1.20640587	     -4.37716791	      1.08319537	      0.98664064	     -6.83623306	     12.24642654	     -2.40844517	     -2.35750401	      0.94407581	     -1.76535858	    -10.70367284	     13.78770009	     -2.75486971	     -1.51121895	     -1.36816497	     -5.84256601
      0.29000000	      0.14011758	      0.65551448	    179.89295168	      0.07527561	      1.08272936	      1.20695171	     -4.37957726	      1.05764829	      0.99074089	     -6.80317450	     12.24466277	     -2.36717149	     -2.33401013	      0.96924229	     -1.74682742	    -10.71819984	     13.83324583	     -2.80791504	     -1.49871467	     -1.36047263	     -5.82161276
      0.30000000	      0.17772976	      0.66863017	    179.91571884	      0.07496996	      1.08260451	      1.20754890	     -4.36833797	      1.03963073	      0.97427214	     -6.78681586	     12.26118825	     -2.32361295	     -2.29901332	      0.98854561	     -1.71318744	    -10.74139956	     13.87285545	     -2.87308864	     -1.48672284	     -1.34406884	     -5.80352101
      0.31000000	      0.20949196	      0.67910369	    179.94775095	      0.07463941	      1.08248093	      1.20820201	     -4.35808370	      1.01703425	      0.95863166	     -6.78493993	     12.28446859	     -2.29255805	     -2.27008660	      1.01277576	     -1.66856579	    -10.76610368	     13.90417661	     -2.92677392	     -1.48113779	     -1.32783828	     -5.79310213
      0.32000000	      0.23283472	      0.68743042	    179.98563924	      0.07428155	      1.08236147	      1.20889930	     -4.35450855	      0.99128729	      0.94937654	     -6.79119657	     12.31350206	     -2.27142007	     -2.25188860	      1.04125192	     -1.61755400	    -10.78973799	     13.93698423	     -2.96692925	     -1.48793068	     -1.31247597	     -5.78258054
